<svg width="28" height="28" viewBox="0 0 28 28" fill="none" xmlns="http://www.w3.org/2000/svg">
<g clipPath="url(#clip0_1823_552)">
<rect width="28" height="28" rx="14" fill="#3B348A"/>
<rect width="28" height="28" rx="14" fill="black" fillOpacity="0.2"/>
<g clipPath="url(#clip1_1823_552)">
<path fillRule="evenodd" clipRule="evenodd" d="M6.58398 13.333C6.58398 9.53271 9.98082 6.58301 14.0007 6.58301C18.0205 6.58301 21.4173 9.53271 21.4173 13.333C21.4173 15.4767 20.1244 17.2744 18.6721 18.596C17.2069 19.9293 15.4601 20.8903 14.2792 21.3627C14.0481 21.4551 13.7863 21.4269 13.5802 21.2874C13.3741 21.1479 13.2507 20.9152 13.2507 20.6663V19.7101C11.6557 19.5428 10.1237 18.8563 8.93718 17.8675C7.56949 16.7278 6.58398 15.1167 6.58398 13.333ZM11.0007 14.333C11.5529 14.333 12.0007 13.8853 12.0007 13.333C12.0007 12.7807 11.5529 12.333 11.0007 12.333C10.4484 12.333 10.0007 12.7807 10.0007 13.333C10.0007 13.8853 10.4484 14.333 11.0007 14.333ZM14.0007 14.333C14.5529 14.333 15.0007 13.8853 15.0007 13.333C15.0007 12.7807 14.5529 12.333 14.0007 12.333C13.4484 12.333 13.0007 12.7807 13.0007 13.333C13.0007 13.8853 13.4484 14.333 14.0007 14.333ZM18.0007 13.333C18.0007 13.8853 17.5529 14.333 17.0007 14.333C16.4484 14.333 16.0007 13.8853 16.0007 13.333C16.0007 12.7807 16.4484 12.333 17.0007 12.333C17.5529 12.333 18.0007 12.7807 18.0007 13.333Z" fill="white"/>
</g>
</g>
<defs>
<clipPath id="clip0_1823_552">
<rect width="28" height="28" rx="14" fill="white"/>
</clipPath>
<clipPath id="clip1_1823_552">
<rect width="16" height="16" fill="white" transform="translate(6 6)"/>
</clipPath>
</defs>
</svg>
