<svg width="18" height="18" viewBox="0 0 18 18" fill="none" xmlns="http://www.w3.org/2000/svg">
<g clipPath="url(#clip0_1819_5188)">
<path d="M12.9937 10.4333L12.9938 10.4333V10.4312C12.9938 10.4295 12.9938 10.4284 12.9939 10.4271C12.994 10.4245 12.9943 10.4211 12.9948 10.4108C12.9952 10.4026 12.9956 10.3889 12.9937 10.3734C12.9894 10.0467 12.7213 9.78125 12.3938 9.78125H5.60313H5.6C5.26565 9.78125 4.99938 10.0554 5.00313 10.3855L5.00426 10.4844H5.00806C5.04032 11.5412 5.48666 12.4937 6.18585 13.1866C6.91002 13.9044 7.90376 14.3469 9 14.3469C10.0962 14.3469 11.09 13.9044 11.8141 13.1867C12.5257 12.4815 12.9713 11.5101 12.9937 10.4333ZM10.9705 12.3381L10.9703 12.3382C10.4633 12.8392 9.76955 13.1469 9 13.1469C8.23029 13.1469 7.53355 12.8391 7.02987 12.3385L7.02981 12.3384C6.66175 11.9731 6.39329 11.5061 6.27277 10.9813H11.7271C11.6068 11.5041 11.3408 11.9734 10.9705 12.3381ZM6.39292 5.90775L6.39259 5.90741C6.15978 5.67461 5.77772 5.67461 5.54491 5.90741C5.31211 6.14022 5.31211 6.52228 5.54491 6.75509L6.55741 7.76759C6.79022 8.00039 7.17228 8.00039 7.40509 7.76759L7.40821 7.76446L8.41446 6.75821C8.64726 6.52541 8.64726 6.14334 8.41446 5.91054C8.18166 5.67774 7.79959 5.67774 7.56679 5.91054L6.97846 6.49887L6.39292 5.90775ZM14.727 3.27304C13.2621 1.8082 11.237 0.9 9 0.9C6.763 0.9 4.73787 1.8082 3.27304 3.27304C1.8082 4.73787 0.9 6.763 0.9 9C0.9 11.237 1.8082 13.2621 3.27304 14.727C4.73787 16.1918 6.763 17.1 9 17.1C11.237 17.1 13.2621 16.1918 14.727 14.727C16.1918 13.2621 17.1 11.237 17.1 9C17.1 6.763 16.1918 4.73787 14.727 3.27304ZM10.4332 5.90741C10.2004 5.67461 9.81834 5.67461 9.58554 5.90741C9.35274 6.14022 9.35274 6.52228 9.58554 6.75509L10.598 7.76759C10.8308 8.00039 11.2129 8.00039 11.4457 7.76759L11.4488 7.76446L12.4582 6.75509C12.691 6.52228 12.691 6.14022 12.4582 5.90741C12.2254 5.67461 11.8433 5.67461 11.6105 5.90741L11.0219 6.49608L10.4332 5.90741ZM9 2.1C10.9068 2.1 12.6316 2.87307 13.8793 4.12071C15.1269 5.36836 15.9 7.09322 15.9 9C15.9 10.9068 15.1269 12.6316 13.8793 13.8793C12.6316 15.1269 10.9068 15.9 9 15.9C7.09322 15.9 5.36836 15.1269 4.12071 13.8793C2.87307 12.6316 2.1 10.9068 2.1 9C2.1 7.09322 2.87307 5.36836 4.12071 4.12071C5.36836 2.87307 7.09322 2.1 9 2.1Z" fill="#707082" stroke="#707082" strokeWidth="0.2"/>
</g>
<defs>
<clipPath id="clip0_1819_5188">
<rect width="18" height="18" fill="white"/>
</clipPath>
</defs>
</svg>
