<svg width="28" height="28" viewBox="0 0 28 28" fill="none" xmlns="http://www.w3.org/2000/svg">
<path d="M14 27.1251C13.9562 27.1251 13.9125 27.1207 13.8731 27.1076L13.1031 26.8757C5.85813 24.6795 2.1875 20.4445 2.1875 14.2845V5.25012C2.1875 5.06199 2.30563 4.89574 2.48063 4.83887L13.8556 0.896992C13.9475 0.866367 14.0481 0.866367 14.14 0.896992L25.515 4.83449C25.69 4.89574 25.8081 5.06199 25.8081 5.24574V14.2801C25.8081 20.4357 22.1375 24.6707 14.8925 26.8714L14.1225 27.1032C14.0831 27.1164 14.0394 27.1207 13.9956 27.1207L14 27.1251ZM3.0625 5.56074V14.2845C3.0625 20.0114 6.5275 23.9664 13.3569 26.0357L14 26.2326L14.6431 26.0357C21.4725 23.962 24.9375 20.0114 24.9375 14.2845V5.56074L14 1.77637L3.0625 5.56074Z" fill="#FFB237"/>
<path d="M22.8944 6.58875L14.1444 3.52625C14.0525 3.49125 13.9475 3.49125 13.8556 3.52625L5.10563 6.58875C4.93063 6.65 4.8125 6.81625 4.8125 7V14.2669C4.8125 19.3375 7.69125 22.5837 13.8731 24.4825C13.9169 24.4956 13.9563 24.5 14 24.5C14.0437 24.5 14.0875 24.4956 14.1269 24.4825C20.3088 22.5881 23.1875 19.3419 23.1875 14.2669V7C23.1875 6.81625 23.0694 6.65 22.8944 6.58875Z" fill="#FFB237"/>
<path d="M14.2324 17.333C14.1658 17.333 14.1091 17.313 14.0624 17.273C14.0224 17.2263 14.0024 17.1697 14.0024 17.103V11.503L12.3424 12.783C12.2891 12.823 12.2324 12.8397 12.1724 12.833C12.1124 12.8263 12.0624 12.7963 12.0224 12.743L11.7624 12.413C11.7224 12.353 11.7058 12.293 11.7124 12.233C11.7258 12.173 11.7591 12.123 11.8124 12.083L13.9924 10.403C14.0391 10.3697 14.0824 10.3497 14.1224 10.343C14.1624 10.3363 14.2058 10.333 14.2524 10.333H14.7624C14.8291 10.333 14.8824 10.3563 14.9224 10.403C14.9624 10.443 14.9824 10.4963 14.9824 10.563V17.103C14.9824 17.1697 14.9624 17.2263 14.9224 17.273C14.8824 17.313 14.8291 17.333 14.7624 17.333H14.2324Z" fill="#05030C"/>
</svg>
