<svg width="128" height="30" viewBox="0 0 128 30" fill="none" xmlns="http://www.w3.org/2000/svg">
<path d="M26.5065 4.62999C26.3577 4.49023 26.1556 4.41162 25.945 4.41162H6.55898C6.34249 4.41162 6.13614 4.4942 5.98562 4.64111L3.23805 7.32826C2.99281 7.56886 2.9463 7.93255 3.12473 8.22L5.81226 12.5509C3.75814 12.558 2.08287 12.5644 1.31332 12.5684C1.03002 12.5699 0.770402 12.7129 0.630021 12.944L0.105708 13.8047L0 13.9405L3.06977 16.823C3.27695 17.0176 3.55771 17.1271 3.85031 17.1271H8.652L13.6727 25.218C13.8173 25.4506 14.0829 25.592 14.3695 25.588L18.1184 25.5404C18.3991 25.5372 18.6562 25.3943 18.7966 25.1664L22.0524 19.8445C22.356 19.3474 21.9746 18.728 21.3649 18.7272L17.5459 18.7224C17.2642 18.7224 17.0029 18.8622 16.86 19.0901C16.5522 19.5816 15.7945 19.58 15.49 19.0877C15.1653 18.5628 14.745 17.8847 14.2757 17.1279H22.975C23.2761 17.1279 23.5636 17.0128 23.7716 16.8095L26.2655 14.3709C26.6072 14.0366 26.6714 13.5308 26.4228 13.1306L24.9497 10.7563C24.8938 10.6665 24.7924 10.6118 24.6816 10.6118H19.7835C19.5433 10.6118 19.3953 10.8571 19.5163 11.0517C20.1023 11.9879 20.4862 12.5922 20.4862 12.5715C20.4862 12.5294 16.0685 12.5279 11.4241 12.5366C10.1784 10.5355 9.17631 8.93626 9.17631 8.96961C9.17631 9.04981 25.4038 8.9839 28.3509 8.97199C28.6342 8.9704 28.8938 8.82747 29.0342 8.5964L29.5585 7.73562L29.6642 7.59983L26.5065 4.62999Z" fill="#3B348A"/>
<path d="M26.5065 4.62999C26.3577 4.49023 26.1556 4.41162 25.945 4.41162H6.55898C6.34249 4.41162 6.13614 4.4942 5.98562 4.64111L3.23805 7.32826C2.99281 7.56886 2.9463 7.93255 3.12473 8.22L5.81226 12.5509C3.75814 12.558 2.08287 12.5644 1.31332 12.5684C1.03002 12.5699 0.770402 12.7129 0.630021 12.944L0.105708 13.8047L0 13.9405L3.06977 16.823C3.27695 17.0176 3.55771 17.1271 3.85031 17.1271H8.652L13.6727 25.218C13.8173 25.4506 14.0829 25.592 14.3695 25.588L18.1184 25.5404C18.3991 25.5372 18.6562 25.3943 18.7966 25.1664L22.0524 19.8445C22.356 19.3474 21.9746 18.728 21.3649 18.7272L17.5459 18.7224C17.2642 18.7224 17.0029 18.8622 16.86 19.0901C16.5522 19.5816 15.7945 19.58 15.49 19.0877C15.1653 18.5628 14.745 17.8847 14.2757 17.1279H22.975C23.2761 17.1279 23.5636 17.0128 23.7716 16.8095L26.2655 14.3709C26.6072 14.0366 26.6714 13.5308 26.4228 13.1306L24.9497 10.7563C24.8938 10.6665 24.7924 10.6118 24.6816 10.6118H19.7835C19.5433 10.6118 19.3953 10.8571 19.5163 11.0517C20.1023 11.9879 20.4862 12.5922 20.4862 12.5715C20.4862 12.5294 16.0685 12.5279 11.4241 12.5366C10.1784 10.5355 9.17631 8.93626 9.17631 8.96961C9.17631 9.04981 25.4038 8.9839 28.3509 8.97199C28.6342 8.9704 28.8938 8.82747 29.0342 8.5964L29.5585 7.73562L29.6642 7.59983L26.5065 4.62999Z" fill="black" fillOpacity="0.2"/>
<path d="M36.1523 8.84424H45.0526V11.388H38.8463V13.3162H41.9506V15.8599H38.8463V20.3114H36.1523V8.84424Z" fill="#3B348A"/>
<path d="M36.1523 8.84424H45.0526V11.388H38.8463V13.3162H41.9506V15.8599H38.8463V20.3114H36.1523V8.84424Z" fill="black" fillOpacity="0.2"/>
<path d="M47.2773 8.82373H49.9498V20.2909H47.2773V8.82373Z" fill="#3B348A"/>
<path d="M47.2773 8.82373H49.9498V20.2909H47.2773V8.82373Z" fill="black" fillOpacity="0.2"/>
<path d="M52.8379 8.82373H55.3385L60.2301 15.6123V8.82373H62.924V20.2909H60.3804L55.5103 13.5637V20.2909H52.8379V8.82373Z" fill="#3B348A"/>
<path d="M52.8379 8.82373H55.3385L60.2301 15.6123V8.82373H62.924V20.2909H60.3804L55.5103 13.5637V20.2909H52.8379V8.82373Z" fill="black" fillOpacity="0.2"/>
<path d="M65.8164 8.82373H74.7166V11.3674H68.5103V13.2957H71.6147V15.8394H68.5103V20.2909H65.8164V8.82373Z" fill="#3B348A"/>
<path d="M65.8164 8.82373H74.7166V11.3674H68.5103V13.2957H71.6147V15.8394H68.5103V20.2909H65.8164V8.82373Z" fill="black" fillOpacity="0.2"/>
<path d="M79.0297 19.5028C78.1087 18.9895 77.3761 18.2968 76.8321 17.4201C76.2857 16.5457 76.0137 15.5873 76.0137 14.5471C76.0137 13.5069 76.2857 12.5507 76.8321 11.6763C77.3785 10.8019 78.1111 10.1069 79.0297 9.59366C79.9484 9.08038 80.9553 8.82373 82.0458 8.82373C83.1362 8.82373 84.1432 9.08038 85.0618 9.59366C85.9805 10.1069 86.7106 10.7997 87.2499 11.6763C87.7892 12.5507 88.0564 13.5092 88.0564 14.5471C88.0564 15.5873 87.7868 16.5435 87.2499 17.4201C86.7106 18.2945 85.9805 18.9895 85.0618 19.5028C84.1432 20.0161 83.1362 20.2727 82.0458 20.2727C80.9553 20.2727 79.9484 20.0161 79.0297 19.5028ZM83.7161 17.2998C84.2267 17.0136 84.6323 16.6275 84.933 16.1415C85.236 15.6554 85.3863 15.1263 85.3863 14.5516C85.3863 13.977 85.236 13.4478 84.933 12.9618C84.6323 12.4758 84.2243 12.0897 83.7161 11.8035C83.2054 11.5173 82.6495 11.372 82.0458 11.372C81.4421 11.372 80.8814 11.5151 80.366 11.8035C79.8482 12.0897 79.4401 12.4781 79.1371 12.9618C78.8364 13.4478 78.6837 13.977 78.6837 14.5516C78.6837 15.1263 78.8341 15.6554 79.1371 16.1415C79.4401 16.6275 79.8482 17.0136 80.366 17.2998C80.8837 17.5859 81.4445 17.7313 82.0458 17.7313C82.6471 17.7313 83.2078 17.5859 83.7161 17.2998Z" fill="#3B348A"/>
<path d="M79.0297 19.5028C78.1087 18.9895 77.3761 18.2968 76.8321 17.4201C76.2857 16.5457 76.0137 15.5873 76.0137 14.5471C76.0137 13.5069 76.2857 12.5507 76.8321 11.6763C77.3785 10.8019 78.1111 10.1069 79.0297 9.59366C79.9484 9.08038 80.9553 8.82373 82.0458 8.82373C83.1362 8.82373 84.1432 9.08038 85.0618 9.59366C85.9805 10.1069 86.7106 10.7997 87.2499 11.6763C87.7892 12.5507 88.0564 13.5092 88.0564 14.5471C88.0564 15.5873 87.7868 16.5435 87.2499 17.4201C86.7106 18.2945 85.9805 18.9895 85.0618 19.5028C84.1432 20.0161 83.1362 20.2727 82.0458 20.2727C80.9553 20.2727 79.9484 20.0161 79.0297 19.5028ZM83.7161 17.2998C84.2267 17.0136 84.6323 16.6275 84.933 16.1415C85.236 15.6554 85.3863 15.1263 85.3863 14.5516C85.3863 13.977 85.236 13.4478 84.933 12.9618C84.6323 12.4758 84.2243 12.0897 83.7161 11.8035C83.2054 11.5173 82.6495 11.372 82.0458 11.372C81.4421 11.372 80.8814 11.5151 80.366 11.8035C79.8482 12.0897 79.4401 12.4781 79.1371 12.9618C78.8364 13.4478 78.6837 13.977 78.6837 14.5516C78.6837 15.1263 78.8341 15.6554 79.1371 16.1415C79.4401 16.6275 79.8482 17.0136 80.366 17.2998C80.8837 17.5859 81.4445 17.7313 82.0458 17.7313C82.6471 17.7313 83.2078 17.5859 83.7161 17.2998Z" fill="black" fillOpacity="0.2"/>
<path d="M92.946 19.5732C92.0201 19.0531 91.2828 18.3536 90.7364 17.4701C90.19 16.5889 89.918 15.6282 89.918 14.588C89.918 13.55 90.19 12.5871 90.7364 11.7058C91.2828 10.8246 92.0178 10.1228 92.946 9.60274C93.8718 9.08264 94.8811 8.82373 95.9739 8.82373C96.9355 8.82373 97.8447 9.02813 98.6989 9.43922C99.5531 9.8503 100.269 10.4181 100.844 11.1426L98.6893 12.6802C98.3577 12.2691 97.9592 11.9511 97.4939 11.7263C97.0262 11.5014 96.5204 11.3879 95.9739 11.3879C95.3703 11.3879 94.8095 11.531 94.2941 11.8194C93.7763 12.1056 93.3683 12.4962 93.0653 12.9891C92.7646 13.4819 92.6119 14.0156 92.6119 14.588C92.6119 15.1626 92.7622 15.6963 93.0653 16.1892C93.3683 16.682 93.7763 17.0704 94.2941 17.3588C94.8119 17.645 95.3726 17.7903 95.9739 17.7903C96.5204 17.7903 97.0262 17.6768 97.4939 17.4519C97.9616 17.2271 98.3529 16.9091 98.6679 16.498L100.823 18.0356C100.262 18.7601 99.5507 19.3279 98.6893 19.739C97.828 20.1501 96.9212 20.3545 95.9739 20.3545C94.8811 20.3522 93.8742 20.0933 92.946 19.5732Z" fill="#3B348A"/>
<path d="M92.946 19.5732C92.0201 19.0531 91.2828 18.3536 90.7364 17.4701C90.19 16.5889 89.918 15.6282 89.918 14.588C89.918 13.55 90.19 12.5871 90.7364 11.7058C91.2828 10.8246 92.0178 10.1228 92.946 9.60274C93.8718 9.08264 94.8811 8.82373 95.9739 8.82373C96.9355 8.82373 97.8447 9.02813 98.6989 9.43922C99.5531 9.8503 100.269 10.4181 100.844 11.1426L98.6893 12.6802C98.3577 12.2691 97.9592 11.9511 97.4939 11.7263C97.0262 11.5014 96.5204 11.3879 95.9739 11.3879C95.3703 11.3879 94.8095 11.531 94.2941 11.8194C93.7763 12.1056 93.3683 12.4962 93.0653 12.9891C92.7646 13.4819 92.6119 14.0156 92.6119 14.588C92.6119 15.1626 92.7622 15.6963 93.0653 16.1892C93.3683 16.682 93.7763 17.0704 94.2941 17.3588C94.8119 17.645 95.3726 17.7903 95.9739 17.7903C96.5204 17.7903 97.0262 17.6768 97.4939 17.4519C97.9616 17.2271 98.3529 16.9091 98.6679 16.498L100.823 18.0356C100.262 18.7601 99.5507 19.3279 98.6893 19.739C97.828 20.1501 96.9212 20.3545 95.9739 20.3545C94.8811 20.3522 93.8742 20.0933 92.946 19.5732Z" fill="black" fillOpacity="0.2"/>
<path d="M105.44 19.6345C104.665 19.1962 104.047 18.608 103.586 17.8698C103.126 17.1317 102.896 16.3254 102.896 15.4488V8.82373H105.571V15.4488C105.571 16.0779 105.808 16.6184 106.282 17.0681C106.757 17.5201 107.323 17.7449 107.986 17.7449C108.661 17.7449 109.232 17.5201 109.699 17.0681C110.167 16.6161 110.401 16.0779 110.401 15.4488V8.82373H113.073V15.4488C113.073 16.3232 112.844 17.1317 112.384 17.8698C111.923 18.608 111.305 19.1962 110.53 19.6345C109.754 20.0729 108.907 20.2909 107.986 20.2909C107.065 20.2909 106.216 20.0729 105.44 19.6345Z" fill="#3B348A"/>
<path d="M105.44 19.6345C104.665 19.1962 104.047 18.608 103.586 17.8698C103.126 17.1317 102.896 16.3254 102.896 15.4488V8.82373H105.571V15.4488C105.571 16.0779 105.808 16.6184 106.282 17.0681C106.757 17.5201 107.323 17.7449 107.986 17.7449C108.661 17.7449 109.232 17.5201 109.699 17.0681C110.167 16.6161 110.401 16.0779 110.401 15.4488V8.82373H113.073V15.4488C113.073 16.3232 112.844 17.1317 112.384 17.8698C111.923 18.608 111.305 19.1962 110.53 19.6345C109.754 20.0729 108.907 20.2909 107.986 20.2909C107.065 20.2909 106.216 20.0729 105.44 19.6345Z" fill="black" fillOpacity="0.2"/>
<path d="M117.135 19.9298C116.324 19.705 115.608 19.3802 114.993 18.9555L116.565 16.8841C116.966 17.159 117.438 17.3656 117.978 17.511C118.517 17.6541 119.059 17.7268 119.605 17.7268C120.295 17.7268 120.855 17.6246 121.285 17.4179C121.557 17.2816 121.695 17.1317 121.695 16.9659C121.695 16.6797 121.655 16.4708 121.576 16.3391C121.497 16.2096 121.311 16.1029 121.015 16.0211C120.719 15.9393 120.221 15.8644 119.517 15.7963C118.584 15.7009 117.768 15.5396 117.071 15.3148C116.374 15.0899 115.833 14.6561 115.444 14.0134C115.114 13.4933 114.947 12.8505 114.947 12.0851C114.962 11.5242 115.131 11.0109 115.453 10.5476C115.778 10.082 116.226 9.70722 116.801 9.41878C117.591 9.02133 118.555 8.82373 119.688 8.82373C120.521 8.82373 121.344 8.93729 122.156 9.16214C122.967 9.38699 123.688 9.70495 124.322 10.116L122.769 12.1874C122.368 11.9148 121.896 11.7059 121.359 11.5605C120.82 11.4174 120.278 11.3447 119.731 11.3447C119.056 11.3447 118.488 11.4538 118.028 11.6741C117.756 11.8103 117.617 11.9557 117.617 12.1056C117.617 12.4213 117.66 12.6325 117.746 12.7415C117.846 12.8778 118.049 12.98 118.35 13.0504C118.653 13.1185 119.133 13.1867 119.793 13.2548C120.598 13.3366 121.313 13.466 121.939 13.6454C122.564 13.8226 123.125 14.1746 123.618 14.7015C124.115 15.2285 124.361 15.9848 124.361 16.9682C124.361 17.5428 124.201 18.0652 123.876 18.5376C123.552 19.01 123.089 19.3893 122.485 19.6754C121.695 20.0729 120.731 20.2705 119.598 20.2705C118.77 20.2682 117.947 20.1546 117.135 19.9298Z" fill="#3B348A"/>
<path d="M117.135 19.9298C116.324 19.705 115.608 19.3802 114.993 18.9555L116.565 16.8841C116.966 17.159 117.438 17.3656 117.978 17.511C118.517 17.6541 119.059 17.7268 119.605 17.7268C120.295 17.7268 120.855 17.6246 121.285 17.4179C121.557 17.2816 121.695 17.1317 121.695 16.9659C121.695 16.6797 121.655 16.4708 121.576 16.3391C121.497 16.2096 121.311 16.1029 121.015 16.0211C120.719 15.9393 120.221 15.8644 119.517 15.7963C118.584 15.7009 117.768 15.5396 117.071 15.3148C116.374 15.0899 115.833 14.6561 115.444 14.0134C115.114 13.4933 114.947 12.8505 114.947 12.0851C114.962 11.5242 115.131 11.0109 115.453 10.5476C115.778 10.082 116.226 9.70722 116.801 9.41878C117.591 9.02133 118.555 8.82373 119.688 8.82373C120.521 8.82373 121.344 8.93729 122.156 9.16214C122.967 9.38699 123.688 9.70495 124.322 10.116L122.769 12.1874C122.368 11.9148 121.896 11.7059 121.359 11.5605C120.82 11.4174 120.278 11.3447 119.731 11.3447C119.056 11.3447 118.488 11.4538 118.028 11.6741C117.756 11.8103 117.617 11.9557 117.617 12.1056C117.617 12.4213 117.66 12.6325 117.746 12.7415C117.846 12.8778 118.049 12.98 118.35 13.0504C118.653 13.1185 119.133 13.1867 119.793 13.2548C120.598 13.3366 121.313 13.466 121.939 13.6454C122.564 13.8226 123.125 14.1746 123.618 14.7015C124.115 15.2285 124.361 15.9848 124.361 16.9682C124.361 17.5428 124.201 18.0652 123.876 18.5376C123.552 19.01 123.089 19.3893 122.485 19.6754C121.695 20.0729 120.731 20.2705 119.598 20.2705C118.77 20.2682 117.947 20.1546 117.135 19.9298Z" fill="black" fillOpacity="0.2"/>
<path fillRule="evenodd" clipRule="evenodd" d="M92.021 26.2542C92.8863 26.1913 96.19 25.9509 99.3627 25.72C117.378 24.409 125.384 23.6703 126.808 23.1876C127.058 23.1031 127.256 22.8657 127.248 22.6603C127.24 22.4549 127.135 22.3252 127.014 22.372C126.623 22.5241 120.944 22.8222 120.939 22.6911C120.936 22.6211 122.26 22.4472 123.882 22.3046C126.823 22.046 126.82 22.046 122.5 22.2746C120.119 22.4008 116.104 22.5967 113.577 22.71C111.051 22.8234 107.981 22.9918 106.755 23.0843C99.2678 23.649 97.1012 23.8184 96.4002 23.8941C95.9682 23.9409 94.3165 24.068 92.7299 24.1766C91.1433 24.2852 89.5509 24.4124 89.1911 24.4592C88.5998 24.536 87.6295 24.6099 82.5058 24.9684C81.6404 25.0289 78.5199 25.1678 75.5716 25.2772C72.6233 25.3864 70.283 25.5131 70.3713 25.5586C70.4593 25.6042 73.2869 25.5484 76.6549 25.4345C81.4896 25.271 82.4482 25.2686 81.2086 25.4231C78.217 25.7961 54.4634 26.5752 53.8557 26.3203C53.6804 26.2468 49.7984 26.2941 44.92 26.4292C40.1756 26.5606 35.8197 26.6419 35.24 26.6099C34.5249 26.5704 34.2725 26.5973 34.4544 26.6936C34.6021 26.7716 35.3743 26.8534 36.1705 26.8754C36.9668 26.8973 38.0329 26.9303 38.5398 26.9487C40.0491 27.0032 42.2992 27.0279 48.4041 27.0562C51.5862 27.0711 54.9 27.0902 55.768 27.0987C62.2732 27.1628 66.5418 27.0961 77.7102 26.7562C84.7158 26.543 91.1557 26.3171 92.021 26.2542ZM97.3592 24.9008C97.3576 24.8601 97.4154 24.8247 97.4876 24.8222C97.5598 24.8197 97.6202 24.8509 97.6218 24.8916C97.6233 24.9323 97.5655 24.9677 97.4933 24.9702C97.4211 24.9727 97.3607 24.9415 97.3592 24.9008ZM96.1327 24.9187C96.227 24.8612 96.3846 24.8557 96.483 24.9065C96.5812 24.9575 96.5042 25.0046 96.3117 25.0113C96.1192 25.018 96.0387 24.9764 96.1327 24.9187ZM95.2585 24.9739C95.2569 24.9332 95.3147 24.8979 95.3869 24.8953C95.4592 24.8928 95.5195 24.9241 95.5211 24.9648C95.5226 25.0055 95.4648 25.0408 95.3926 25.0433C95.3204 25.0459 95.2601 25.0146 95.2585 24.9739ZM100.854 24.6061C100.948 24.5486 101.105 24.5431 101.204 24.5939C101.302 24.6449 101.225 24.692 101.033 24.6987C100.84 24.7054 100.76 24.6638 100.854 24.6061ZM100.066 24.6335C100.16 24.576 100.318 24.5705 100.416 24.6213C100.514 24.6723 100.437 24.7195 100.245 24.7262C100.052 24.7329 99.9718 24.6912 100.066 24.6335ZM99.2781 24.661C99.3724 24.6035 99.5299 24.598 99.6284 24.6488C99.7266 24.6998 99.6495 24.7469 99.457 24.7536C99.2646 24.7603 99.1841 24.7186 99.2781 24.661ZM83.699 25.2283C83.6974 25.1876 83.7552 25.1522 83.8274 25.1497C83.8997 25.1472 83.96 25.1785 83.9616 25.2192C83.9631 25.2599 83.9053 25.2952 83.8331 25.2977C83.7609 25.3002 83.7006 25.269 83.699 25.2283ZM82.9977 25.228C83.092 25.1705 83.2496 25.165 83.348 25.2158C83.4462 25.2667 83.3691 25.3139 83.1767 25.3206C82.9842 25.3273 82.9037 25.2856 82.9977 25.228ZM103.058 24.3754C103.382 24.3288 103.913 24.3103 104.24 24.3342C104.566 24.3583 104.301 24.3964 103.651 24.419C103.001 24.4417 102.734 24.4221 103.058 24.3754ZM108.371 24.0727C108.369 24.032 108.427 23.9966 108.499 23.9941C108.571 23.9916 108.632 24.0228 108.633 24.0635C108.635 24.1042 108.577 24.1396 108.505 24.1421C108.433 24.1446 108.372 24.1134 108.371 24.0727ZM107.144 24.0906C107.239 24.0331 107.396 24.0276 107.495 24.0784C107.593 24.1294 107.516 24.1765 107.323 24.1832C107.131 24.1899 107.05 24.1483 107.144 24.0906ZM106.094 24.1272C106.188 24.0697 106.346 24.0642 106.444 24.115C106.542 24.166 106.465 24.2131 106.273 24.2198C106.08 24.2265 106 24.1849 106.094 24.1272ZM120.239 22.7454C120.334 22.6878 120.491 22.6824 120.59 22.7332C120.688 22.7841 120.611 22.8313 120.418 22.838C120.226 22.8447 120.145 22.803 120.239 22.7454Z" fill="#3B348A"/>
<path fillRule="evenodd" clipRule="evenodd" d="M92.021 26.2542C92.8863 26.1913 96.19 25.9509 99.3627 25.72C117.378 24.409 125.384 23.6703 126.808 23.1876C127.058 23.1031 127.256 22.8657 127.248 22.6603C127.24 22.4549 127.135 22.3252 127.014 22.372C126.623 22.5241 120.944 22.8222 120.939 22.6911C120.936 22.6211 122.26 22.4472 123.882 22.3046C126.823 22.046 126.82 22.046 122.5 22.2746C120.119 22.4008 116.104 22.5967 113.577 22.71C111.051 22.8234 107.981 22.9918 106.755 23.0843C99.2678 23.649 97.1012 23.8184 96.4002 23.8941C95.9682 23.9409 94.3165 24.068 92.7299 24.1766C91.1433 24.2852 89.5509 24.4124 89.1911 24.4592C88.5998 24.536 87.6295 24.6099 82.5058 24.9684C81.6404 25.0289 78.5199 25.1678 75.5716 25.2772C72.6233 25.3864 70.283 25.5131 70.3713 25.5586C70.4593 25.6042 73.2869 25.5484 76.6549 25.4345C81.4896 25.271 82.4482 25.2686 81.2086 25.4231C78.217 25.7961 54.4634 26.5752 53.8557 26.3203C53.6804 26.2468 49.7984 26.2941 44.92 26.4292C40.1756 26.5606 35.8197 26.6419 35.24 26.6099C34.5249 26.5704 34.2725 26.5973 34.4544 26.6936C34.6021 26.7716 35.3743 26.8534 36.1705 26.8754C36.9668 26.8973 38.0329 26.9303 38.5398 26.9487C40.0491 27.0032 42.2992 27.0279 48.4041 27.0562C51.5862 27.0711 54.9 27.0902 55.768 27.0987C62.2732 27.1628 66.5418 27.0961 77.7102 26.7562C84.7158 26.543 91.1557 26.3171 92.021 26.2542ZM97.3592 24.9008C97.3576 24.8601 97.4154 24.8247 97.4876 24.8222C97.5598 24.8197 97.6202 24.8509 97.6218 24.8916C97.6233 24.9323 97.5655 24.9677 97.4933 24.9702C97.4211 24.9727 97.3607 24.9415 97.3592 24.9008ZM96.1327 24.9187C96.227 24.8612 96.3846 24.8557 96.483 24.9065C96.5812 24.9575 96.5042 25.0046 96.3117 25.0113C96.1192 25.018 96.0387 24.9764 96.1327 24.9187ZM95.2585 24.9739C95.2569 24.9332 95.3147 24.8979 95.3869 24.8953C95.4592 24.8928 95.5195 24.9241 95.5211 24.9648C95.5226 25.0055 95.4648 25.0408 95.3926 25.0433C95.3204 25.0459 95.2601 25.0146 95.2585 24.9739ZM100.854 24.6061C100.948 24.5486 101.105 24.5431 101.204 24.5939C101.302 24.6449 101.225 24.692 101.033 24.6987C100.84 24.7054 100.76 24.6638 100.854 24.6061ZM100.066 24.6335C100.16 24.576 100.318 24.5705 100.416 24.6213C100.514 24.6723 100.437 24.7195 100.245 24.7262C100.052 24.7329 99.9718 24.6912 100.066 24.6335ZM99.2781 24.661C99.3724 24.6035 99.5299 24.598 99.6284 24.6488C99.7266 24.6998 99.6495 24.7469 99.457 24.7536C99.2646 24.7603 99.1841 24.7186 99.2781 24.661ZM83.699 25.2283C83.6974 25.1876 83.7552 25.1522 83.8274 25.1497C83.8997 25.1472 83.96 25.1785 83.9616 25.2192C83.9631 25.2599 83.9053 25.2952 83.8331 25.2977C83.7609 25.3002 83.7006 25.269 83.699 25.2283ZM82.9977 25.228C83.092 25.1705 83.2496 25.165 83.348 25.2158C83.4462 25.2667 83.3691 25.3139 83.1767 25.3206C82.9842 25.3273 82.9037 25.2856 82.9977 25.228ZM103.058 24.3754C103.382 24.3288 103.913 24.3103 104.24 24.3342C104.566 24.3583 104.301 24.3964 103.651 24.419C103.001 24.4417 102.734 24.4221 103.058 24.3754ZM108.371 24.0727C108.369 24.032 108.427 23.9966 108.499 23.9941C108.571 23.9916 108.632 24.0228 108.633 24.0635C108.635 24.1042 108.577 24.1396 108.505 24.1421C108.433 24.1446 108.372 24.1134 108.371 24.0727ZM107.144 24.0906C107.239 24.0331 107.396 24.0276 107.495 24.0784C107.593 24.1294 107.516 24.1765 107.323 24.1832C107.131 24.1899 107.05 24.1483 107.144 24.0906ZM106.094 24.1272C106.188 24.0697 106.346 24.0642 106.444 24.115C106.542 24.166 106.465 24.2131 106.273 24.2198C106.08 24.2265 106 24.1849 106.094 24.1272ZM120.239 22.7454C120.334 22.6878 120.491 22.6824 120.59 22.7332C120.688 22.7841 120.611 22.8313 120.418 22.838C120.226 22.8447 120.145 22.803 120.239 22.7454Z" fill="black" fillOpacity="0.2"/>
</svg>
