<svg width="22" height="22" viewBox="0 0 22 22" fill="none" xmlns="http://www.w3.org/2000/svg">
<rect width="22" height="22" rx="11" fill="#EDEDED"/>
<path d="M11.1894 17.8107C14.9508 17.7061 17.9152 14.5721 17.8106 10.8107C17.706 7.04929 14.572 4.08488 10.8106 4.18949C7.04921 4.2941 4.0848 7.42811 4.18941 11.1895C4.29401 14.9509 7.42802 17.9153 11.1894 17.8107Z" fill="#FFCE00"/>
<path d="M12.1883 8.1876C11.753 8.3326 11.2143 8.35621 10.9991 8.36031C10.7844 8.35637 10.243 8.3326 9.8083 8.1876C8.97958 7.91146 7.64676 7.73717 6.63038 7.7611C5.87802 7.77952 5.09889 7.88076 4.61353 7.97821C4.39816 8.02166 4.26136 8.2331 4.31095 8.44689L4.36274 8.66951C4.39313 8.79923 4.49341 8.89496 4.61888 8.93951C4.68359 8.96265 4.74593 9.00484 4.77395 9.08073C4.86101 9.31483 5.33252 10.7061 5.58787 11.2201C5.7971 11.6409 6.36369 12.0018 7.68092 12.0068C9.55546 12.0144 10.2049 10.7747 10.5029 9.97386C10.5341 9.89026 10.5814 9.72999 10.6241 9.5746C10.6853 9.35215 10.8203 9.13315 10.8809 9.10166C10.9163 9.08372 10.9585 9.06845 10.9988 9.06845C11.0407 9.06845 11.0822 9.08372 11.1183 9.10166C11.1781 9.13315 11.3102 9.35215 11.3724 9.5746C11.4149 9.72999 11.4615 9.89026 11.493 9.97386C11.7908 10.7747 12.4402 12.0144 14.3146 12.0068C15.632 12.0018 16.1992 11.6409 16.4078 11.2201C16.663 10.7061 17.1341 9.31483 17.2224 9.08073C17.2504 9.00484 17.3124 8.96265 17.3773 8.93951C17.5028 8.89496 17.6029 8.79923 17.6333 8.66951L17.6852 8.44674C17.7347 8.23294 17.5975 8.02167 17.3823 7.97806C16.8973 7.88061 16.1178 7.77937 15.3658 7.76095C14.3489 7.73718 13.0166 7.91146 12.1883 8.1876Z" fill="#261F11"/>
<path d="M11.8756 9.43106C11.915 10.339 12.7993 11.212 13.6267 11.4122C14.8434 11.7069 15.7584 11.4445 16.2773 10.3262C16.4336 9.98885 16.768 9.25379 16.7464 8.86162C16.7091 8.18055 15.8442 8.3002 15.2922 8.28635C15.2332 8.28509 11.8215 8.18906 11.8756 9.43106Z" fill="#483D23"/>
<path d="M10.1532 9.43106C10.1138 10.339 9.22967 11.212 8.40189 11.4122C7.18542 11.7069 6.27027 11.4445 5.75153 10.3262C5.59536 9.98885 5.26082 9.25379 5.28223 8.86162C5.31954 8.18055 6.18447 8.3002 6.73643 8.28635C6.79546 8.28509 10.2072 8.18906 10.1532 9.43106Z" fill="#483D23"/>
<path d="M12.4531 14.4877C12.2725 14.4877 12.0882 14.4743 11.901 14.4463C11.719 14.4187 11.5937 14.249 11.6209 14.067C11.6483 13.8855 11.8167 13.7602 12 13.7871C13.0542 13.9447 13.9914 13.5465 14.3863 12.7707C14.4699 12.6068 14.6707 12.5418 14.8346 12.6252C14.9986 12.7087 15.0636 12.9096 14.9802 13.0734C14.526 13.9645 13.5674 14.4877 12.4531 14.4877Z" fill="#562912"/>
</svg>
