<svg width="28" height="28" viewBox="0 0 28 28" fill="none" xmlns="http://www.w3.org/2000/svg">
<g clipPath="url(#clip0_1819_6562)">
<rect width="28" height="28" rx="14" fill="white"/>
<path fillRule="evenodd" clipRule="evenodd" d="M14.0861 19.9138C14.379 20.2067 14.8539 20.2067 15.1467 19.9138L20.5303 14.5302C20.8232 14.2373 20.8232 13.7625 20.5303 13.4696L15.1468 8.08592C14.8539 7.79302 14.379 7.79302 14.0861 8.08591C13.7932 8.37881 13.7932 8.85368 14.0861 9.14657L18.1894 13.2499L8.00003 13.2499C7.58581 13.2499 7.25003 13.5857 7.25003 13.9999C7.25003 14.4141 7.58582 14.7499 8.00003 14.7499L18.1893 14.7499L14.0861 18.8531C13.7932 19.146 13.7932 19.6209 14.0861 19.9138Z" fill="#05030C"/>
</g>
<defs>
<clipPath id="clip0_1819_6562">
<rect width="28" height="28" rx="14" fill="white"/>
</clipPath>
</defs>
</svg>
