<svg width="22" height="22" viewBox="0 0 22 22" fill="none" xmlns="http://www.w3.org/2000/svg">
<rect width="22" height="22" rx="11" fill="#EDEDED"/>
<path d="M12.1041 17.8956C15.9126 17.2858 18.5057 13.704 17.8959 9.89557C17.2861 6.08709 13.7043 3.49406 9.89585 4.10386C6.08738 4.71366 3.49434 8.29539 4.10415 12.1039C4.71395 15.9123 8.29567 18.5054 12.1041 17.8956Z" fill="#FFCE00"/>
<path d="M15.046 10.1029C15.1184 10.1476 15.2139 10.0968 15.2139 10.0117C15.2139 10.0109 15.2139 10.0104 15.2139 10.0096C15.2139 9.50019 14.801 9.08691 14.2915 9.08691C13.7821 9.08691 13.3691 9.50019 13.3691 10.0096C13.3691 10.0104 13.3691 10.0109 13.3691 10.0117C13.3691 10.0968 13.4647 10.1476 13.5371 10.1029C13.7563 9.96736 14.0148 9.88893 14.2915 9.88893C14.5683 9.88893 14.8266 9.96736 15.046 10.1029Z" fill="#562912"/>
<path d="M8.46278 10.1029C8.53492 10.1476 8.63012 10.0968 8.63061 10.0117C8.63061 10.0109 8.63061 10.0104 8.63061 10.0096C8.63061 9.50019 8.21749 9.08691 7.70756 9.08691C7.19795 9.08691 6.78516 9.50019 6.78516 10.0096C6.78516 10.0104 6.78516 10.0109 6.78516 10.0117C6.78548 10.0968 6.88069 10.1476 6.95298 10.1029C7.17245 9.96736 7.43081 9.88893 7.70756 9.88893C7.98463 9.88893 8.24316 9.96736 8.46278 10.1029Z" fill="#562912"/>
<path d="M11.036 14.184C9.86714 14.184 8.71058 13.7322 7.8629 12.9442C7.72476 12.8157 7.71686 12.5997 7.84531 12.4615C7.97344 12.3236 8.18984 12.3153 8.32797 12.4439C9.05076 13.1156 10.0377 13.5009 11.036 13.5009C11.9985 13.5009 12.9602 13.1387 13.6742 12.5072C13.8159 12.3825 14.0313 12.3957 14.1564 12.5369C14.2815 12.6783 14.2681 12.894 14.1267 13.0191C13.2772 13.7703 12.1798 14.184 11.036 14.184Z" fill="#562912"/>
</svg>
