<svg width="57" height="56" viewBox="0 0 57 56" fill="none" xmlns="http://www.w3.org/2000/svg">
<circle cx="28.5" cy="28" r="28" fill="#F6F0FF"/>
<g clipPath="url(#clip0_1819_5272)">
<path fillRule="evenodd" clipRule="evenodd" d="M29.5 18H32.5C35.26 18 37.5 20.24 37.5 23V23.46C37.5 23.76 37.46 24.06 37.37 24.33C36.07 24.75 34.93 25.54 34.08 26.57L29.43 27.35C29.14 26.01 27.94 25 26.5 25H23.5C22.06 25 20.86 26.01 20.57 27.35L15.01 26.42C13.56 26.18 12.5 24.93 12.5 23.46V23C12.5 20.24 14.74 18 17.5 18H20.5V17C20.5 15.34 21.84 14 23.5 14H26.5C28.16 14 29.5 15.34 29.5 17V18ZM22.5 18H27.5V17C27.5 16.45 27.05 16 26.5 16H23.5C22.95 16 22.5 16.45 22.5 17V18ZM39.5 36C42.2614 36 44.5 33.7614 44.5 31C44.5 28.2386 42.2614 26 39.5 26C36.7386 26 34.5 28.2386 34.5 31C34.5 33.7614 36.7386 36 39.5 36ZM39.5 38C38.425 38 37.41 37.75 36.5 37.317V40.998C36.5 41.797 37.39 42.273 38.055 41.83L39.5 40.866L40.945 41.83C41.61 42.273 42.5 41.797 42.5 40.998V37.317C41.59 37.75 40.575 38 39.5 38ZM34.5 35.89V36C33.59 37.21 32.13 38 30.5 38H19.5C16.74 38 14.5 35.76 14.5 33V28.34C14.56 28.36 14.62 28.38 14.68 28.39L20.53 29.36C20.7 30.85 21.96 32 23.5 32H26.5C28.04 32 29.3 30.85 29.47 29.36L32.86 28.8C32.62 29.49 32.5 30.23 32.5 31C32.5 32.9 33.26 34.63 34.5 35.89ZM23.5 27H26.5C27.0523 27 27.5 27.4477 27.5 28V29C27.5 29.5523 27.0523 30 26.5 30H23.5C22.9477 30 22.5 29.5523 22.5 29V28C22.5 27.4477 22.9477 27 23.5 27Z" fill="#3B348A"/>
<path fillRule="evenodd" clipRule="evenodd" d="M29.5 18H32.5C35.26 18 37.5 20.24 37.5 23V23.46C37.5 23.76 37.46 24.06 37.37 24.33C36.07 24.75 34.93 25.54 34.08 26.57L29.43 27.35C29.14 26.01 27.94 25 26.5 25H23.5C22.06 25 20.86 26.01 20.57 27.35L15.01 26.42C13.56 26.18 12.5 24.93 12.5 23.46V23C12.5 20.24 14.74 18 17.5 18H20.5V17C20.5 15.34 21.84 14 23.5 14H26.5C28.16 14 29.5 15.34 29.5 17V18ZM22.5 18H27.5V17C27.5 16.45 27.05 16 26.5 16H23.5C22.95 16 22.5 16.45 22.5 17V18ZM39.5 36C42.2614 36 44.5 33.7614 44.5 31C44.5 28.2386 42.2614 26 39.5 26C36.7386 26 34.5 28.2386 34.5 31C34.5 33.7614 36.7386 36 39.5 36ZM39.5 38C38.425 38 37.41 37.75 36.5 37.317V40.998C36.5 41.797 37.39 42.273 38.055 41.83L39.5 40.866L40.945 41.83C41.61 42.273 42.5 41.797 42.5 40.998V37.317C41.59 37.75 40.575 38 39.5 38ZM34.5 35.89V36C33.59 37.21 32.13 38 30.5 38H19.5C16.74 38 14.5 35.76 14.5 33V28.34C14.56 28.36 14.62 28.38 14.68 28.39L20.53 29.36C20.7 30.85 21.96 32 23.5 32H26.5C28.04 32 29.3 30.85 29.47 29.36L32.86 28.8C32.62 29.49 32.5 30.23 32.5 31C32.5 32.9 33.26 34.63 34.5 35.89ZM23.5 27H26.5C27.0523 27 27.5 27.4477 27.5 28V29C27.5 29.5523 27.0523 30 26.5 30H23.5C22.9477 30 22.5 29.5523 22.5 29V28C22.5 27.4477 22.9477 27 23.5 27Z" fill="black" fillOpacity="0.2"/>
</g>
<defs>
<clipPath id="clip0_1819_5272">
<rect width="32" height="32" fill="white" transform="translate(12.5 12)"/>
</clipPath>
</defs>
</svg>
