<svg width="58" height="58" viewBox="0 0 58 58" fill="none" xmlns="http://www.w3.org/2000/svg">
<rect width="58" height="58" rx="12" fill="#25D366"/>
<g clipPath="url(#clip0_1819_6574)">
<path d="M9.57532 50.0026L9.56187 49.9545L9.57534 50.0026L18.8096 47.421C21.9164 49.1425 25.4274 50.0499 28.9999 50.05C34.6226 50.05 39.9088 47.8603 43.8847 43.8846C47.8605 39.9088 50.05 34.6225 50.05 28.9999C50.0498 23.3773 47.8601 18.0911 43.8845 14.1153C39.9087 10.1396 34.6224 7.95 28.9998 7.95C23.3778 7.95 18.0909 10.1398 14.1153 14.1153C10.1397 18.0911 7.95 23.3774 7.95 29C7.95016 32.5723 8.85755 36.0836 10.5789 39.1906L7.99729 48.4247C7.87283 48.87 7.99814 49.3479 8.32509 49.6748C8.65204 50.0018 9.12974 50.127 9.57532 50.0026ZM28.9998 47.4891C25.6991 47.489 22.4592 46.6077 19.6301 44.9406C19.4313 44.8234 19.2066 44.7633 18.98 44.7633C18.8645 44.7633 18.7485 44.7789 18.6353 44.8106L11.076 46.924L13.1893 39.3649C13.2831 39.0294 13.2362 38.6703 13.0594 38.3702L13.0163 38.3955L13.0594 38.3701C11.3923 35.5407 10.5111 32.3005 10.5109 28.9999C10.5109 24.0612 12.4341 19.4184 15.9263 15.9262C19.4185 12.434 24.0613 10.5109 28.9998 10.5109C39.1945 10.5109 47.4887 18.8051 47.4891 28.9999C47.4891 39.1948 39.1948 47.4891 28.9998 47.4891Z" fill="white" stroke="white" strokeWidth="0.1"/>
<path d="M26.891 27.1815L26.891 27.1815L30.8181 31.1085C30.9495 31.2398 31.1258 31.3123 31.3155 31.3123C31.505 31.3123 31.6813 31.2398 31.8124 31.1088L32.3829 30.5384C33.1443 29.7769 34.1599 29.3574 35.2422 29.3574C36.3244 29.3574 37.3401 29.7769 38.1017 30.5385L39.2427 31.6794C40.8194 33.2563 40.8194 35.8219 39.2427 37.3986L38.3917 38.2495C37.0333 39.608 35.1574 40.3242 32.9706 40.3242H32.97C29.5008 40.324 25.6087 38.4975 22.5552 35.4443L22.5906 35.409L22.5552 35.4443C20.1318 33.0207 18.4771 30.092 17.898 27.1963C17.2825 24.1187 17.937 21.4214 19.7505 19.6079C19.7505 19.6079 19.7505 19.6079 19.7505 19.6079L20.6013 18.7569L20.6013 18.7569C21.363 17.9953 22.3786 17.576 23.4607 17.576C24.5429 17.576 25.5585 17.9952 26.3203 18.7566L26.3203 18.7566L27.4614 19.8981C29.0381 21.4748 29.0381 24.0402 27.4613 25.617L27.426 25.5816L27.4613 25.617L26.8907 26.1875C26.7598 26.3184 26.6875 26.4946 26.6875 26.6843L26.891 27.1815ZM26.891 27.1815C26.76 27.0504 26.6876 26.8741 26.6875 26.6844L26.891 27.1815ZM21.5615 21.4188L21.5615 21.4188L22.4122 20.5679C22.4122 20.5679 22.4122 20.5679 22.4122 20.5679C22.6901 20.2901 23.0622 20.137 23.4608 20.137C23.8597 20.137 24.2319 20.2901 24.5096 20.5677C24.5096 20.5677 24.5096 20.5677 24.5096 20.5677L25.6506 21.7089C26.2287 22.2872 26.2287 23.228 25.6507 23.8061C25.6507 23.8061 25.6507 23.8061 25.6507 23.8061L25.08 24.3767C24.4651 24.9915 24.1266 25.8114 24.1266 26.6848C24.1267 27.558 24.4655 28.3778 25.0803 28.9926L29.0074 32.9195C29.0074 32.9195 29.0074 32.9195 29.0074 32.9195C29.6224 33.5346 30.4423 33.8734 31.3156 33.8734C32.1887 33.8734 33.0085 33.5347 33.6233 32.9199L34.1938 32.3494L34.1584 32.3141L34.1938 32.3494C34.4716 32.0716 34.8437 31.9185 35.2422 31.9185C35.6409 31.9185 36.013 32.0716 36.2909 32.3495L37.4319 33.4905C38.0101 34.0686 38.0101 35.0095 37.4319 35.5878L36.581 36.4387C35.7161 37.3035 34.4694 37.7633 32.9707 37.7633H32.9703C30.1726 37.7631 26.9549 36.222 24.3662 33.6336C22.294 31.5611 20.8896 29.0961 20.4093 26.6941C19.9649 24.4716 20.3789 22.6015 21.5615 21.4188Z" fill="white" stroke="white" strokeWidth="0.1"/>
</g>
<defs>
<clipPath id="clip0_1819_6574">
<rect width="42" height="42" fill="white" transform="translate(8 8)"/>
</clipPath>
</defs>
</svg>
