<svg width="138" height="34" viewBox="0 0 138 34" fill="none" xmlns="http://www.w3.org/2000/svg">
<path d="M28.5936 5.24749C28.4331 5.0891 28.2151 5 27.9879 5H7.07543C6.84189 5 6.6193 5.09359 6.45692 5.26009L3.49302 8.30552C3.22846 8.57821 3.17829 8.99038 3.37077 9.31617L6.26991 14.2245C4.05405 14.2326 2.24688 14.2398 1.41673 14.2443C1.11112 14.2461 0.831063 14.4081 0.679629 14.67L0.114032 15.6455L0 15.7994L3.31148 19.0662C3.53498 19.2867 3.83785 19.4109 4.15349 19.4109H9.33326L14.7493 28.5805C14.9053 28.8442 15.1917 29.0044 15.501 28.9999L19.545 28.9459C19.8479 28.9423 20.1252 28.7803 20.2766 28.522L23.7888 22.4906C24.1163 21.9272 23.7049 21.2252 23.0472 21.2243L18.9274 21.2189C18.6236 21.2189 18.3417 21.3773 18.1876 21.6356C17.8555 22.1927 17.0381 22.1909 16.7097 21.6329C16.3594 21.038 15.906 20.2695 15.3997 19.4118H24.7841C25.1088 19.4118 25.419 19.2813 25.6434 19.0509L28.3337 16.2872C28.7022 15.9083 28.7715 15.335 28.5033 14.8815L26.9142 12.1906C26.854 12.0889 26.7445 12.0268 26.625 12.0268H21.3412C21.0822 12.0268 20.9225 12.3049 21.053 12.5254C21.6852 13.5864 22.0993 14.2713 22.0993 14.2479C22.0993 14.2002 17.3337 14.1984 12.3236 14.2083C10.9799 11.9404 9.89885 10.1279 9.89885 10.1657C9.89885 10.2566 27.4041 10.1819 30.5833 10.1684C30.8889 10.1666 31.1689 10.0046 31.3204 9.74274L31.886 8.7672L32 8.6133L28.5936 5.24749Z" fill="white"/>
<path d="M39 10.0234H48.601V12.9063H41.906V15.0916H45.2548V17.9745H41.906V23.0196H39V10.0234Z" fill="white"/>
<path d="M51 10H53.8829V22.9961H51V10Z" fill="white"/>
<path d="M57 10H59.6976L64.9743 17.6937V10H67.8803V22.9961H65.1364L59.8829 15.3719V22.9961H57V10Z" fill="white"/>
<path d="M71 10H80.601V12.8829H73.906V15.0682H77.2548V17.9511H73.906V22.9961H71V10Z" fill="white"/>
<path d="M85.2535 22.103C84.26 21.5212 83.4698 20.7362 82.8829 19.7426C82.2934 18.7516 82 17.6654 82 16.4865C82 15.3076 82.2934 14.2239 82.8829 13.2329C83.4723 12.242 84.2625 11.4543 85.2535 10.8726C86.2445 10.2909 87.3308 10 88.5071 10C89.6834 10 90.7696 10.2909 91.7606 10.8726C92.7516 11.4543 93.5393 12.2394 94.121 13.2329C94.7027 14.2239 94.991 15.3102 94.991 16.4865C94.991 17.6654 94.7001 18.749 94.121 19.7426C93.5393 20.7336 92.7516 21.5212 91.7606 22.103C90.7696 22.6847 89.6834 22.9755 88.5071 22.9755C87.3308 22.9755 86.2445 22.6847 85.2535 22.103ZM90.3089 19.6062C90.8597 19.2819 91.2973 18.8443 91.6216 18.2934C91.9485 17.7426 92.1107 17.1429 92.1107 16.4916C92.1107 15.8404 91.9485 15.2407 91.6216 14.6898C91.2973 14.139 90.8571 13.7014 90.3089 13.3771C89.758 13.0528 89.1583 12.888 88.5071 12.888C87.8559 12.888 87.251 13.0502 86.695 13.3771C86.1364 13.7014 85.6963 14.1416 85.3694 14.6898C85.045 15.2407 84.8803 15.8404 84.8803 16.4916C84.8803 17.1429 85.0425 17.7426 85.3694 18.2934C85.6963 18.8443 86.1364 19.2819 86.695 19.6062C87.2535 19.9305 87.8584 20.0952 88.5071 20.0952C89.1557 20.0952 89.7606 19.9305 90.3089 19.6062Z" fill="white"/>
<path d="M100.266 22.1827C99.2677 21.5933 98.4723 20.8005 97.8829 19.7992C97.2934 18.8005 97 17.7117 97 16.5328C97 15.3565 97.2934 14.2651 97.8829 13.2664C98.4723 12.2677 99.2651 11.4723 100.266 10.8829C101.265 10.2934 102.354 10 103.533 10C104.57 10 105.551 10.2317 106.472 10.6976C107.394 11.1634 108.166 11.8069 108.786 12.6281L106.462 14.3707C106.104 13.9048 105.674 13.5444 105.172 13.2896C104.668 13.0347 104.122 12.906 103.533 12.906C102.882 12.906 102.277 13.0682 101.721 13.3951C101.162 13.7194 100.722 14.1622 100.395 14.7207C100.071 15.2793 99.9061 15.8842 99.9061 16.5328C99.9061 17.184 100.068 17.7889 100.395 18.3475C100.722 18.906 101.162 19.3462 101.721 19.6731C102.279 19.9974 102.884 20.1622 103.533 20.1622C104.122 20.1622 104.668 20.0335 105.172 19.7786C105.677 19.5238 106.099 19.1634 106.439 18.6975L108.763 20.4402C108.158 21.2613 107.391 21.9048 106.462 22.3707C105.533 22.8365 104.555 23.0682 103.533 23.0682C102.354 23.0656 101.268 22.7722 100.266 22.1827Z" fill="white"/>
<path d="M113.744 22.2522C112.907 21.7555 112.241 21.0888 111.744 20.2522C111.247 19.4157 111 18.5019 111 17.5084V10H113.885V17.5084C113.885 18.2214 114.14 18.834 114.653 19.3436C115.165 19.8559 115.775 20.1107 116.49 20.1107C117.219 20.1107 117.834 19.8559 118.338 19.3436C118.843 18.8314 119.095 18.2214 119.095 17.5084V10H121.978V17.5084C121.978 18.4994 121.731 19.4157 121.234 20.2522C120.737 21.0888 120.071 21.7555 119.234 22.2522C118.398 22.749 117.484 22.9961 116.49 22.9961C115.497 22.9961 114.58 22.749 113.744 22.2522Z" fill="white"/>
<path d="M126.36 22.5869C125.485 22.3321 124.713 21.964 124.049 21.4826L125.745 19.1351C126.178 19.4466 126.687 19.6808 127.269 19.8456C127.851 20.0077 128.435 20.0901 129.024 20.0901C129.768 20.0901 130.373 19.9743 130.837 19.74C131.13 19.5856 131.279 19.4157 131.279 19.2278C131.279 18.9035 131.236 18.6667 131.151 18.5174C131.066 18.3707 130.865 18.2497 130.546 18.157C130.227 18.0643 129.689 17.9794 128.929 17.9022C127.923 17.7941 127.042 17.6113 126.291 17.3565C125.539 17.1017 124.955 16.61 124.535 15.8816C124.18 15.2922 124 14.5637 124 13.6963C124.015 13.0605 124.198 12.4788 124.546 11.9537C124.896 11.426 125.38 11.0013 126 10.6744C126.852 10.2239 127.892 10 129.115 10C130.013 10 130.901 10.1287 131.776 10.3835C132.651 10.6384 133.429 10.9987 134.113 11.4646L132.438 13.8121C132.005 13.5032 131.495 13.2664 130.916 13.1017C130.335 12.9395 129.75 12.8571 129.161 12.8571C128.432 12.8571 127.82 12.9807 127.323 13.2304C127.03 13.3848 126.88 13.5496 126.88 13.7194C126.88 14.0772 126.927 14.3166 127.019 14.4402C127.127 14.5946 127.346 14.7104 127.671 14.7902C127.997 14.8674 128.515 14.9447 129.228 15.0219C130.095 15.1145 130.867 15.2613 131.542 15.4646C132.216 15.6654 132.821 16.0644 133.354 16.6615C133.889 17.2587 134.154 18.1158 134.154 19.2304C134.154 19.8816 133.982 20.4736 133.632 21.009C133.282 21.5444 132.783 21.9743 132.131 22.2986C131.279 22.749 130.239 22.973 129.017 22.973C128.124 22.9704 127.236 22.8417 126.36 22.5869Z" fill="white"/>
<path fillRule="evenodd" clipRule="evenodd" d="M99.2654 29.7546C100.199 29.6833 103.763 29.4109 107.185 29.1492C126.619 27.6634 135.255 26.8262 136.792 26.2792C137.061 26.1833 137.275 25.9144 137.266 25.6815C137.258 25.4487 137.144 25.3017 137.014 25.3548C136.592 25.5272 130.465 25.865 130.46 25.7164C130.457 25.6371 131.886 25.44 133.635 25.2784C136.808 24.9853 136.804 24.9853 132.145 25.2445C129.576 25.3875 125.244 25.6095 122.519 25.7379C119.793 25.8664 116.482 26.0572 115.16 26.162C107.083 26.8021 104.746 26.9941 103.989 27.0798C103.523 27.1328 101.742 27.277 100.03 27.4001C98.3186 27.5231 96.6008 27.6673 96.2127 27.7203C95.5748 27.8073 94.5281 27.8911 89.0009 28.2974C88.0674 28.366 84.7013 28.5234 81.5208 28.6474C78.3403 28.7711 75.8157 28.9147 75.9109 28.9663C76.0059 29.0179 79.0561 28.9547 82.6894 28.8256C87.9047 28.6404 88.9388 28.6376 87.6016 28.8127C84.3745 29.2354 58.7505 30.1184 58.0949 29.8295C57.9058 29.7462 53.7181 29.7998 48.4556 29.9529C43.3377 30.1019 38.6388 30.194 38.0135 30.1578C37.242 30.113 36.9697 30.1434 37.166 30.2526C37.3253 30.341 38.1583 30.4337 39.0172 30.4587C39.8762 30.4835 41.0263 30.5209 41.5731 30.5417C43.2012 30.6036 45.6284 30.6315 52.2141 30.6636C55.6468 30.6804 59.2214 30.7022 60.1578 30.7117C67.1752 30.7843 71.7799 30.7087 83.8277 30.3235C91.385 30.0819 98.3319 29.8259 99.2654 29.7546ZM105.024 28.2207C105.022 28.1746 105.085 28.1345 105.162 28.1317C105.24 28.1288 105.305 28.1642 105.307 28.2104C105.309 28.2565 105.246 28.2966 105.169 28.2994C105.091 28.3023 105.026 28.2669 105.024 28.2207ZM103.701 28.2411C103.803 28.1759 103.973 28.1697 104.079 28.2273C104.185 28.285 104.102 28.3385 103.894 28.3461C103.686 28.3537 103.599 28.3064 103.701 28.2411ZM102.758 28.3036C102.756 28.2575 102.818 28.2174 102.896 28.2146C102.974 28.2117 103.039 28.2472 103.041 28.2933C103.043 28.3394 102.98 28.3795 102.902 28.3823C102.825 28.3852 102.759 28.3498 102.758 28.3036ZM108.793 27.8868C108.895 27.8216 109.065 27.8154 109.171 27.873C109.277 27.9307 109.194 27.9842 108.986 27.9918C108.779 27.9994 108.692 27.9521 108.793 27.8868ZM107.944 27.9179C108.045 27.8527 108.215 27.8465 108.322 27.9041C108.427 27.9618 108.344 28.0153 108.137 28.0229C107.929 28.0305 107.842 27.9832 107.944 27.9179ZM107.094 27.949C107.196 27.8838 107.366 27.8776 107.472 27.9352C107.578 27.9929 107.495 28.0464 107.287 28.0539C107.079 28.0615 106.992 28.0143 107.094 27.949ZM90.2881 28.5919C90.2864 28.5458 90.3488 28.5057 90.4267 28.5029C90.5046 28.5 90.5697 28.5355 90.5714 28.5816C90.573 28.6277 90.5107 28.6678 90.4328 28.6706C90.3549 28.6735 90.2898 28.6381 90.2881 28.5919ZM89.5316 28.5916C89.6333 28.5264 89.8033 28.5202 89.9095 28.5777C90.0154 28.6355 89.9323 28.6889 89.7246 28.6965C89.517 28.7041 89.4302 28.6569 89.5316 28.5916ZM111.171 27.6253C111.521 27.5725 112.094 27.5516 112.446 27.5786C112.798 27.6059 112.512 27.6491 111.811 27.6748C111.11 27.7004 110.822 27.6782 111.171 27.6253ZM116.903 27.2822C116.901 27.2361 116.963 27.196 117.041 27.1932C117.119 27.1903 117.184 27.2257 117.186 27.2719C117.187 27.318 117.125 27.3581 117.047 27.3609C116.969 27.3638 116.904 27.3283 116.903 27.2822ZM115.579 27.3026C115.681 27.2374 115.851 27.2312 115.957 27.2888C116.063 27.3465 115.98 27.3999 115.773 27.4075C115.565 27.4151 115.478 27.3679 115.579 27.3026ZM114.446 27.344C114.548 27.2788 114.718 27.2726 114.824 27.3302C114.93 27.388 114.847 27.4414 114.639 27.449C114.432 27.4566 114.345 27.4094 114.446 27.344ZM129.706 25.7779C129.808 25.7128 129.977 25.7065 130.084 25.7641C130.19 25.8219 130.106 25.8753 129.899 25.8829C129.691 25.8905 129.604 25.8433 129.706 25.7779Z" fill="white"/>
</svg>
